<?xml version="1.0" encoding="UTF-8" standalone="no"?>
<!-- Created with Inkscape (http://www.inkscape.org/) -->

<svg
   width="410.44272mm"
   height="93.603592mm"
   viewBox="0 0 410.44272 93.603592"
   version="1.1"
   id="svg1"
   xmlns="http://www.w3.org/2000/svg"
   xmlns:svg="http://www.w3.org/2000/svg">
  <defs
     id="defs1" />
  <g
     id="layer1"
     transform="translate(-87.473951,-184.7082)">
    <path
       d="m 437.22396,189.17708 c -1.09594,0 -1.98438,0.88844 -1.98438,1.98438 0,1.09594 0.88844,1.98437 1.98438,1.98437 1.09594,0 1.98437,-0.88843 1.98437,-1.98437 0,-1.09594 -0.88843,-1.98438 -1.98437,-1.98438 z"
       style="fill:#ffffff;stroke:#000000;stroke-linecap:round;stroke-linejoin:round;paint-order:fill markers stroke"
       id="path12" />
    <path
       d="m 322.79167,185.20833 v 26.45834 H 95.996724 c -0.767996,-0.4093 -2.187291,-0.66144 -3.723287,-0.66146 -2.374527,0 -4.299467,0.59229 -4.299479,1.32291 1.84e-4,0.64322 1.503975,1.19319 3.563607,1.30328 0.243009,0.013 0.489209,0.0196 0.735872,0.0196 -0.246663,3e-5 -0.492863,0.007 -0.735872,0.0196 -2.059632,0.11009 -3.563423,0.66006 -3.563607,1.30328 1.84e-4,0.64322 1.503975,1.19319 3.563607,1.30328 0.243009,0.013 0.489209,0.0196 0.735872,0.0196 -0.246663,3e-5 -0.492863,0.007 -0.735872,0.0196 -2.059632,0.11009 -3.563423,0.66006 -3.563607,1.30328 1.84e-4,0.64322 1.503975,1.19319 3.563607,1.30328 v 0.1018 L 322.79167,218.2811 v 9.26042 L 96.819413,227.38044 c -0.767996,-0.4093 -2.187291,-0.66144 -3.723287,-0.66146 -2.374528,0 -4.299467,0.59229 -4.299479,1.32291 1.84e-4,0.64322 1.503975,1.19319 3.563607,1.30328 0.243009,0.013 0.489208,0.0196 0.735872,0.0196 -0.246664,3e-5 -0.492863,0.007 -0.735872,0.0196 -2.059632,0.11009 -3.563423,0.66006 -3.563607,1.30328 1.84e-4,0.64322 1.503975,1.19319 3.563607,1.30328 0.243009,0.013 0.489208,0.0191 0.735872,0.0191 -0.246664,3e-5 -0.492863,0.007 -0.735872,0.0196 -2.059632,0.11009 -3.563423,0.66006 -3.563607,1.30328 1.84e-4,0.64322 1.503975,1.19319 3.563607,1.30328 v 0.10181 l 230.431416,-0.58188 v 25.13542 l 134.9375,-5.2e-4 26.45833,18.52083 -5.29167,-18.52083 18.52084,5.2e-4 V 185.2082 Z m 74.74479,3.96875 c 1.09594,0 1.98437,0.88844 1.98437,1.98438 0,1.09594 -0.88843,1.98437 -1.98437,1.98437 -1.09594,0 -1.98438,-0.88843 -1.98438,-1.98437 0,-1.09594 0.88844,-1.98438 1.98438,-1.98438 z m 39.6875,0 c 1.09594,0 1.98437,0.88844 1.98437,1.98438 0,1.09594 -0.88843,1.98437 -1.98437,1.98437 -1.09594,0 -1.98438,-0.88843 -1.98438,-1.98437 0,-1.09594 0.88844,-1.98438 1.98438,-1.98438 z"
       style="fill:#ffffff;stroke:#000000;stroke-linecap:round;stroke-linejoin:round;paint-order:fill markers stroke"
       id="path11" />
    <path
       d="m 397.53646,189.17708 c -1.09594,0 -1.98438,0.88844 -1.98438,1.98438 0,1.09594 0.88844,1.98437 1.98438,1.98437 1.09594,0 1.98437,-0.88843 1.98437,-1.98437 0,-1.09594 -0.88843,-1.98438 -1.98437,-1.98438 z"
       style="fill:#ffffff;stroke:#000000;stroke-linecap:round;stroke-linejoin:round;paint-order:fill markers stroke"
       id="path10" />
    <path
       style="fill:#ffffff;fill-opacity:1;stroke:#000000;stroke-width:1;stroke-linecap:round;stroke-linejoin:round;stroke-dasharray:none;paint-order:fill markers stroke"
       d="m 407.4583,193.14584 c 1.76389,17.63866 3.52778,17.63913 5.29167,0 z"
       id="path9" />
  </g>
</svg>
